<svg width="97" height="16" viewBox="0 0 97 16" fill="none" xmlns="http://www.w3.org/2000/svg">
<path d="M0.342529 14.9999V0.699882H3.94253L8.94253 9.19988H8.98253V0.699882H12.5825V14.9999H8.98253L3.98253 6.49988H3.94253V14.9999H0.342529Z" fill="#E2E6EA"/>
<path d="M21.471 15.3199C16.931 15.3199 14.391 12.1599 14.391 7.83988C14.391 3.53988 16.931 0.379883 21.471 0.379883C25.971 0.379883 28.551 3.53988 28.551 7.83988C28.551 12.1599 25.971 15.3199 21.471 15.3199ZM18.071 7.83988C18.071 10.3399 18.851 12.3799 21.471 12.3799C24.071 12.3799 24.871 10.3399 24.871 7.83988C24.871 5.35988 24.071 3.31988 21.471 3.31988C18.851 3.31988 18.071 5.35988 18.071 7.83988Z" fill="#E2E6EA"/>
<path d="M30.3425 14.9999V0.699882H33.9425L38.9425 9.19988H38.9825V0.699882H42.5825V14.9999H38.9825L33.9825 6.49988H33.9425V14.9999H30.3425Z" fill="#E2E6EA"/>
<path d="M50.751 15.3199C47.011 15.3199 44.191 13.4199 44.191 10.1399H47.831C47.831 11.7999 49.091 12.4199 50.711 12.4199C52.051 12.4199 52.731 11.8799 52.731 11.1399C52.731 9.91988 51.311 9.59988 49.331 8.99988C46.851 8.23988 44.631 7.27988 44.631 4.71988C44.631 1.59988 47.071 0.379883 50.151 0.379883C53.491 0.379883 56.111 2.13988 56.211 5.03988H52.571C52.411 3.93988 51.531 3.27988 50.151 3.27988C49.071 3.27988 48.311 3.63988 48.311 4.45988C48.311 5.41988 49.111 5.73988 50.931 6.27988C53.631 7.07988 56.411 7.83988 56.411 10.7999C56.411 13.5399 54.331 15.3199 50.751 15.3199Z" fill="#E2E6EA"/>
<path d="M60.8486 14.9999V3.63988H56.6886V0.699882H68.5886V3.63988H64.4486V14.9999H60.8486Z" fill="#E2E6EA"/>
<path d="M75.885 15.3199C71.345 15.3199 68.805 12.1599 68.805 7.83988C68.805 3.53988 71.345 0.379883 75.885 0.379883C80.385 0.379883 82.965 3.53988 82.965 7.83988C82.965 12.1599 80.385 15.3199 75.885 15.3199ZM72.485 7.83988C72.485 10.3399 73.265 12.3799 75.885 12.3799C78.485 12.3799 79.285 10.3399 79.285 7.83988C79.285 5.35988 78.485 3.31988 75.885 3.31988C73.265 3.31988 72.485 5.35988 72.485 7.83988Z" fill="#E2E6EA"/>
<path d="M84.7566 14.9999V0.699882H91.6966C94.6766 0.699882 96.5366 2.25988 96.5366 5.25988C96.5366 8.25988 94.6766 9.81988 91.6966 9.81988H88.3566V14.9999H84.7566ZM88.3566 6.87988H90.8566C92.0966 6.87988 92.8566 6.45988 92.8566 5.25988C92.8566 4.05988 92.0966 3.63988 90.8566 3.63988H88.3566V6.87988Z" fill="#E2E6EA"/>
</svg>
