<svg width="75" height="16" viewBox="0 0 75 16" fill="none" xmlns="http://www.w3.org/2000/svg">
<path d="M7.40143 15.3199C3.66143 15.3199 0.841431 13.4199 0.841431 10.1399H4.48143C4.48143 11.7999 5.74143 12.4199 7.36143 12.4199C8.70143 12.4199 9.38143 11.8799 9.38143 11.1399C9.38143 9.91988 7.96143 9.59988 5.98143 8.99988C3.50143 8.23988 1.28143 7.27988 1.28143 4.71988C1.28143 1.59988 3.72143 0.379883 6.80143 0.379883C10.1414 0.379883 12.7614 2.13988 12.8614 5.03988H9.22143C9.06143 3.93988 8.18143 3.27988 6.80143 3.27988C5.72143 3.27988 4.96143 3.63988 4.96143 4.45988C4.96143 5.41988 5.76143 5.73988 7.58143 6.27988C10.2814 7.07988 13.0614 7.83988 13.0614 10.7999C13.0614 13.5399 10.9814 15.3199 7.40143 15.3199Z" fill="#E2E6EA"/>
<path d="M17.4991 14.9999V3.63988H13.3391V0.699882H25.2391V3.63988H21.0991V14.9999H17.4991Z" fill="#E2E6EA"/>
<path d="M32.5991 15.3199C28.2791 15.3199 26.6191 13.3999 26.6191 9.83988V0.699882H30.2191V9.83988C30.2191 11.6999 31.0191 12.3799 32.5991 12.3799C34.1791 12.3799 34.9791 11.6999 34.9791 9.83988V0.699882H38.5791V9.83988C38.5791 13.3999 36.9191 15.3199 32.5991 15.3199Z" fill="#E2E6EA"/>
<path d="M40.8602 14.9999V0.699882H47.2002C51.1802 0.699882 53.5802 3.25988 53.5802 7.85988C53.5802 12.4599 51.3802 14.9999 47.4002 14.9999H40.8602ZM44.4602 12.0599H46.7602C49.0002 12.0599 49.9002 10.4599 49.9002 7.85988C49.9002 5.25988 49.0002 3.63988 46.7602 3.63988H44.4602V12.0599Z" fill="#E2E6EA"/>
<path d="M55.411 14.9999V0.699882H59.011V14.9999H55.411Z" fill="#E2E6EA"/>
<path d="M67.8871 15.3199C63.3471 15.3199 60.8071 12.1599 60.8071 7.83988C60.8071 3.53988 63.3471 0.379883 67.8871 0.379883C72.3871 0.379883 74.9671 3.53988 74.9671 7.83988C74.9671 12.1599 72.3871 15.3199 67.8871 15.3199ZM64.4871 7.83988C64.4871 10.3399 65.2671 12.3799 67.8871 12.3799C70.4871 12.3799 71.2871 10.3399 71.2871 7.83988C71.2871 5.35988 70.4871 3.31988 67.8871 3.31988C65.2671 3.31988 64.4871 5.35988 64.4871 7.83988Z" fill="#E2E6EA"/>
</svg>
